<?xml version="1.0" encoding="utf-8"?>
<!-- Generator: Adobe Illustrator 19.0.0, SVG Export Plug-In . SVG Version: 6.00 Build 0)  -->
<svg version="1.1" id="Calque_1" xmlns="http://www.w3.org/2000/svg" xmlns:xlink="http://www.w3.org/1999/xlink" x="0px" y="0px"
	 viewBox="0 0 612 792" style="enable-background:new 0 0 612 792;" xml:space="preserve">
<style type="text/css">
	.st0{fill:#FFFFFF;}
	.st1{fill:#323232;}
	.st2{fill:#AD274E;}
</style>
<g>
	<g>
		<path class="st0" d="M66.2,324.2c160.1,0,320.2,0,480.2,0c0,48.1,0,96.2,0,144.2c-160.1,0-320.2,0-480.2,0
			C66.2,420.4,66.2,372.3,66.2,324.2z M208.7,405.6c-0.5,0-1,0-1.4,0c-5.3,0-10.6,0-15.8,0c-1.2,0-1.6,0.4-1.8,1.4
			c-1.9,8.2-5.9,15.3-11.7,21.4c-7.9,8.2-17.5,13.1-28.9,14.5c-5.5,0.7-11,0.6-16.4-0.6c-20.3-4.4-34.6-21.2-37-38.3
			c-0.7-4.8-1-9.6-0.3-14.4c1.5-10.1,5.9-18.8,13-26.1c7.8-8,17.4-12.7,28.5-14c6.3-0.8,12.5-0.6,18.5,1.2
			c17.9,5.3,29.6,16.8,34.3,35.1c0.2,0.9,0.6,1.3,1.6,1.3c5.4-0.1,10.7,0,16.1,0c0.4,0,0.9-0.2,1.5-0.3c-1.3-4.6-2.3-9.1-3.9-13.3
			c-4.9-13.4-13.7-23.9-25.7-31.6c-12.5-8-26.2-11.7-41.2-10.5c-3.6,0.3-7.3,0.8-10.9,1.6c-14.6,3.4-26.7,11.1-36.3,22.7
			c-9.6,11.7-14,25.3-14.5,40.2c-0.1,4.7,0.5,9.4,1.5,14c4.8,21.4,17.6,36.5,37.3,45.8c5.8,2.7,11.9,4.5,18.3,5.1
			c4.5,0.5,9,1.3,13.6,0.6c3.1-0.5,6.2-0.6,9.2-1.3c11.6-2.4,21.8-7.5,30.7-15.3C199,434.2,205.9,421.2,208.7,405.6z M110.9,408.4
			c0.6,1.2,1,2.2,1.5,3.2c7.3,14.9,22.7,20.2,35.9,18.4c8.8-1.2,15.7-6,21.3-12.7c6.7-8.1,8.4-17.5,6.7-27.7
			c-0.2-1.2-0.6-1.6-1.9-1.6c-15.2,0-30.5,0-45.7,0c-0.4,0-0.9,0-1.3,0c0-0.1-0.1-0.2-0.1-0.3c1.1-1.4,2.1-2.8,3.3-4.1
			c6.4-6.7,17.1-6.9,24.3-0.6c0.6,0.6,1.7,0.9,2.6,1c3.5,0.1,7,0.1,10.6,0.1c2.2,0,4.4,0,6.7,0c-0.3-0.8-0.5-1.5-0.8-2.1
			c-6.2-14-21.7-22.1-36.9-19.2c-19.2,3.6-31.2,21.6-27.3,40.5c0.2,0.9,0.6,1.2,1.5,1.2c15.2,0,30.5,0,45.7,0c0.5,0,1,0,1.7,0
			c-0.3,0.5-0.3,0.9-0.6,1.2c-1.4,1.6-2.6,3.4-4.3,4.7c-7,5.4-15.8,5-22.7-0.9c-0.8-0.7-1.6-1-2.6-1c-5.4,0-10.7,0-16.1,0
			C111.8,408.3,111.4,408.3,110.9,408.4z M234.3,411.5c0,4.6,0,9.1,0,13.6c0,0.8,0.1,1.5,0.3,2.3c1.8,9.3,10.5,14.9,19.1,13.6
			c8-1.2,14.3-8.2,14.4-16.4c0-2.8,0-5.6,0-8.4c0-4.5-1.5-8.5-4.4-11.9c-6.6-7.9-13.4-15.8-20-23.7c-1.3-1.5-2.3-3.2-2.4-5.1
			c-0.2-3.2-0.4-6.5,0-9.7c0.6-4.6,5-8.1,9.6-8.2c5-0.1,9.3,3.1,10.3,7.8c0.3,1.3,0.3,2.8,0.3,4.2c0,3.3,0,6.5,0,9.9
			c2.3-0.3,4.4-0.5,6.7-0.8c0-3.7,0-7.2,0-10.8c0-10.3-9-18-18.8-16.8c-6.9,0.8-12.5,5.5-14.3,12.2c-1,3.7-0.8,7.5-0.6,11.2
			c0.2,4,1.8,7.6,4.4,10.7c6.3,7.4,12.5,14.9,18.8,22.2c2.6,3,4.1,6.3,3.9,10.3c-0.2,2.7,0.2,5.5-0.1,8.1c-0.7,5.4-5.6,9-11.3,8.6
			c-5-0.4-9-5-9.1-10.2c0-3.3,0-6.6,0-9.8c0-1.2,0-2.4,0-3.6C238.7,411,236.5,411.2,234.3,411.5z M490.6,353.1c0,4.6,0,9.1,0,13.5
			c0,4.5,0,9,0,13.5c-0.1,0.1-0.3,0.1-0.4,0.2c-0.3-0.4-0.6-0.9-1-1.2c-3.9-3.7-9.9-4.1-14.3-0.9c-4,3-5.7,7.1-5.7,12
			c-0.1,12.1-0.1,24.2,0,36.2c0,3.6,1,6.9,3.3,9.8c2.4,2.9,5.5,4.5,9.3,4.4c3.6-0.1,6.6-1.8,8.8-4.6c0.2-0.3,0.4-0.5,0.8-1
			c0.4,1.5,0.7,2.8,1,4.1c0.1,0.3,0.4,0.7,0.7,0.8c1.3,0.1,2.6,0,3.9,0c0-29.3,0-58.3,0-87.6C494.9,352.6,492.8,352.8,490.6,353.1z
			 M415.5,381.4c2.1-0.2,4.1-0.4,6.1-0.7c0.2,0,0.5-0.5,0.5-0.7c0-4.9,0.3-9.9-0.3-14.7c-1.1-9.5-10.4-15.8-19.6-14
			c-8.5,1.7-13.8,8.4-13.8,17.1c0,18.4,0,36.9,0,55.3c0,1.2,0.1,2.3,0.3,3.5c1.8,9.5,10.6,15,19,13.7c8.1-1.2,14.4-8.2,14.4-16.4
			c0-3.6,0-7.2,0-10.8c0-0.4,0-0.8,0-1.2c-2.3,0-4.4,0-6.6,0c0,0.5,0,0.9,0,1.4c0,3.6,0,7.2,0,10.8c0,6.2-6.2,11.1-12.3,9.7
			c-5.1-1.2-8.2-5.1-8.2-10.3c0-18.6,0-37.3,0-55.9c0-0.8,0.1-1.6,0.2-2.4c1-5,5.8-8.6,11-8.1c5.1,0.4,9.3,4.9,9.3,10
			c0,4.1,0,8.2,0,12.4C415.5,380.4,415.5,380.8,415.5,381.4z M307.4,439.9c-0.2-0.5-0.3-0.8-0.4-1.2c-3.9-10.8-7.9-21.7-11.8-32.5
			c-0.3-0.9-0.3-1.6,0.1-2.5c3.9-8.5,7.7-17.1,11.5-25.6c0.2-0.4,0.4-0.9,0.6-1.5c-1.9,0-3.6,0.1-5.4,0c-0.9-0.1-1.4,0.3-1.8,1.1
			c-3.4,7.6-6.9,15.3-10.4,22.9c-0.2,0.4-0.5,0.9-0.8,0.9c-1.5,0.1-3,0-4.6,0c0-16.5,0-32.8,0-49.2c-2.3,0.3-4.4,0.5-6.6,0.8
			c0,29,0,57.9,0,86.7c2.2,0,4.4,0,6.6,0c0-10.6,0-21,0-31.6c1.3,0,2.5,0.1,3.7,0c0.8-0.1,1.1,0.3,1.4,1c0.9,2.7,1.9,5.4,2.9,8.1
			c2.6,7.2,5.3,14.4,7.9,21.6c0.1,0.4,0.6,0.9,0.9,0.9C303.4,439.9,305.4,439.9,307.4,439.9z M529.2,419.2c0,2.5,0,4.8,0,7.2
			c0,4.3-3.2,7.6-7.4,7.6c-4.1,0-7.3-3.3-7.3-7.6c0-5.2,0-10.5,0-15.7c0-0.4,0-0.8,0.1-1.4c7.2,0,14.2,0,21.3,0c0-1.9,0-3.8,0-5.6
			c-0.1-5.2,0.1-10.4-0.3-15.6c-0.6-8-8.8-13.7-16.6-11.9c-6.8,1.6-11.1,7-11.1,14.1c0,11.9,0,23.8,0,35.6c0,1,0.1,2.1,0.3,3.1
			c1.1,6.3,6.4,11.1,13.3,11.4c6,0.3,11.7-3.3,13.7-9.7c1.3-4.1,0.5-8.2,0.7-12.4C533.6,418.6,531.5,418.9,529.2,419.2z
			 M459.3,408.3c0-5.5,0-11,0-16.4c0-1.2-0.1-2.5-0.2-3.7c-0.9-8.1-8.6-13.6-16.6-11.9c-6.7,1.4-11.2,6.9-11.2,13.9
			c0,12.1,0,24.1,0,36.2c0,1,0.1,1.9,0.3,2.9c1.9,9.9,13.3,14.6,21.6,8.9c4.1-2.8,6-6.9,6.1-11.8
			C459.4,420.3,459.3,414.3,459.3,408.3z M342.5,434.1c-2.2-0.9-2.5-1.3-2.5-3.7c0-25.5,0-51,0-76.5c0-0.5,0-1,0-1.6
			c-2.3,0.3-4.4,0.5-6.7,0.8c0,0.6,0,1.1,0,1.6c0,21.5,0,43,0,64.5c0,4.2,0,8.3,0,12.5c0.1,4.8,4.4,8.9,9.2,8.8
			C342.5,438.4,342.5,436.3,342.5,434.1z M352.3,353.1c0,0.5,0,0.9,0,1.3c0,25.5,0,51.1,0,76.6c0,0.8,0.1,1.6,0.2,2.4
			c0.8,4.1,4.9,7.3,8.9,7.1c0-2.1,0-4.3,0-6.4c-2.1-0.8-2.5-1.3-2.5-3.6c0-25.5,0-51,0-76.5c0-0.5,0-1,0-1.7
			C356.7,352.6,354.6,352.8,352.3,353.1z M321.7,439.7c0-21.1,0-42.1,0-63.1c-2.2,0-4.3,0-6.5,0c0,21.1,0,42.1,0,63.1
			C317.4,439.7,319.5,439.7,321.7,439.7z M315.2,360.1c0,3,0,6,0,8.9c2.2,0,4.4,0,6.5,0c0-3,0-6,0-8.9
			C319.6,360.1,317.5,360.1,315.2,360.1z"/>
		<path class="st1" d="M208.7,405.6c-2.7,15.6-9.7,28.6-21.4,39c-8.9,7.8-19.1,12.9-30.7,15.3c-3,0.6-6.2,0.8-9.2,1.3
			c-4.6,0.7-9.1-0.1-13.6-0.6c-6.4-0.7-12.5-2.4-18.3-5.1c-19.8-9.3-32.5-24.4-37.3-45.8c-1-4.6-1.7-9.3-1.5-14
			c0.5-14.9,4.9-28.5,14.5-40.2c9.6-11.6,21.7-19.2,36.3-22.7c3.6-0.8,7.2-1.3,10.9-1.6c14.9-1.3,28.6,2.4,41.2,10.5
			c12,7.7,20.7,18.2,25.7,31.6c1.6,4.3,2.6,8.8,3.9,13.3c-0.6,0.1-1.1,0.3-1.5,0.3c-5.4,0-10.7,0-16.1,0c-1,0-1.4-0.3-1.6-1.3
			c-4.7-18.3-16.4-29.8-34.3-35.1c-6-1.8-12.3-2-18.5-1.2c-11.2,1.4-20.7,6-28.5,14c-7.1,7.3-11.6,16-13,26.1
			c-0.7,4.8-0.4,9.6,0.3,14.4c2.4,17.1,16.7,34,37,38.3c5.4,1.2,10.9,1.3,16.4,0.6c11.4-1.4,21-6.3,28.9-14.5
			c5.8-6,9.8-13.1,11.7-21.4c0.2-1.1,0.7-1.5,1.8-1.4c5.3,0.1,10.6,0,15.8,0C207.7,405.6,208.1,405.6,208.7,405.6z"/>
		<path class="st2" d="M110.9,408.4c0.6,0,0.9-0.1,1.3-0.1c5.4,0,10.7,0,16.1,0c1,0,1.8,0.3,2.6,1c6.9,5.9,15.8,6.3,22.7,0.9
			c1.6-1.3,2.9-3.1,4.3-4.7c0.2-0.2,0.3-0.6,0.6-1.2c-0.7,0-1.2,0-1.7,0c-15.2,0-30.5,0-45.7,0c-0.9,0-1.3-0.2-1.5-1.2
			c-4-19,8.1-37,27.3-40.5c15.2-2.8,30.7,5.2,36.9,19.2c0.3,0.6,0.5,1.3,0.8,2.1c-2.3,0-4.5,0-6.7,0c-3.5,0-7,0.1-10.6-0.1
			c-0.9,0-1.9-0.4-2.6-1c-7.1-6.3-17.9-6-24.3,0.6c-1.2,1.3-2.2,2.7-3.3,4.1c0,0.1,0.1,0.2,0.1,0.3c0.4,0,0.9,0,1.3,0
			c15.2,0,30.5,0,45.7,0c1.3,0,1.7,0.3,1.9,1.6c1.7,10.2,0,19.6-6.7,27.7c-5.5,6.8-12.5,11.5-21.3,12.7
			c-13.1,1.8-28.5-3.5-35.9-18.4C111.9,410.5,111.4,409.5,110.9,408.4z"/>
		<path class="st1" d="M234.3,411.5c2.2-0.3,4.4-0.5,6.6-0.8c0,1.2,0,2.4,0,3.6c0,3.3,0,6.6,0,9.8c0,5.3,4.1,9.9,9.1,10.2
			c5.7,0.4,10.6-3.1,11.3-8.6c0.3-2.7-0.1-5.4,0.1-8.1c0.3-4.1-1.2-7.3-3.9-10.3c-6.4-7.3-12.6-14.8-18.8-22.2
			c-2.6-3.1-4.2-6.6-4.4-10.7c-0.2-3.7-0.4-7.5,0.6-11.2c1.9-6.7,7.4-11.3,14.3-12.2c9.8-1.2,18.8,6.5,18.8,16.8c0,3.6,0,7.1,0,10.8
			c-2.2,0.3-4.4,0.5-6.7,0.8c0-3.3,0-6.6,0-9.9c0-1.4,0-2.8-0.3-4.2c-1-4.7-5.4-7.9-10.3-7.8c-4.6,0.1-9,3.6-9.6,8.2
			c-0.4,3.2-0.2,6.4,0,9.7c0.1,1.9,1.2,3.6,2.4,5.1c6.7,7.9,13.4,15.8,20,23.7c2.9,3.4,4.4,7.4,4.4,11.9c0,2.8,0,5.6,0,8.4
			c0,8.2-6.3,15.2-14.4,16.4c-8.7,1.3-17.4-4.3-19.1-13.6c-0.1-0.7-0.3-1.5-0.3-2.3C234.3,420.6,234.3,416.1,234.3,411.5z"/>
		<path class="st2" d="M490.6,353.1c2.2-0.3,4.3-0.5,6.5-0.8c0,29.2,0,58.3,0,87.6c-1.3,0-2.6,0-3.9,0c-0.3,0-0.6-0.5-0.7-0.8
			c-0.4-1.3-0.7-2.6-1-4.1c-0.4,0.4-0.6,0.7-0.8,1c-2.3,2.8-5.2,4.5-8.8,4.6c-3.8,0.1-6.9-1.5-9.3-4.4c-2.3-2.8-3.3-6.2-3.3-9.8
			c0-12.1-0.1-24.2,0-36.2c0-4.8,1.7-9,5.7-12c4.4-3.2,10.3-2.8,14.3,0.9c0.4,0.4,0.7,0.8,1,1.2c0.1-0.1,0.3-0.1,0.4-0.2
			c0-4.5,0-9,0-13.5C490.6,362.1,490.6,357.7,490.6,353.1z M490.6,408.2c0-6,0-11.9,0-17.9c0-0.6,0-1.3-0.1-1.9
			c-0.8-3.7-4.2-6.2-7.8-5.8c-3.9,0.4-6.7,3.5-6.7,7.4c0,12.1,0,24.2,0,36.2c0,4.3,3.3,7.7,7.4,7.7c4.2,0,7.3-3.3,7.3-7.7
			C490.6,420.2,490.6,414.2,490.6,408.2z"/>
		<path class="st2" d="M415.5,381.4c0-0.6,0-1,0-1.5c0-4.1,0-8.2,0-12.4c0-5.1-4.1-9.6-9.3-10c-5.2-0.4-10,3.1-11,8.1
			c-0.1,0.8-0.2,1.6-0.2,2.4c0,18.6,0,37.3,0,55.9c0,5.2,3.2,9.1,8.2,10.3c6,1.4,12.2-3.5,12.3-9.7c0-3.6,0-7.2,0-10.8
			c0-0.4,0-0.9,0-1.4c2.2,0,4.3,0,6.6,0c0,0.4,0,0.8,0,1.2c0,3.6,0,7.2,0,10.8c0,8.2-6.3,15.2-14.4,16.4c-8.4,1.2-17.3-4.2-19-13.7
			c-0.2-1.1-0.3-2.3-0.3-3.5c0-18.4,0-36.9,0-55.3c0-8.7,5.3-15.4,13.8-17.1c9.2-1.9,18.6,4.5,19.6,14c0.5,4.9,0.2,9.8,0.3,14.7
			c0,0.3-0.3,0.7-0.5,0.7C419.6,381,417.6,381.2,415.5,381.4z"/>
		<path class="st1" d="M307.4,439.9c-2.1,0-4,0-6,0c-0.3,0-0.8-0.6-0.9-0.9c-2.7-7.2-5.3-14.4-7.9-21.6c-1-2.7-2-5.4-2.9-8.1
			c-0.2-0.7-0.6-1-1.4-1c-1.2,0.1-2.4,0-3.7,0c0,10.6,0,21,0,31.6c-2.2,0-4.4,0-6.6,0c0-28.8,0-57.7,0-86.7c2.1-0.3,4.3-0.5,6.6-0.8
			c0,16.5,0,32.8,0,49.2c1.6,0,3.1,0,4.6,0c0.3,0,0.6-0.6,0.8-0.9c3.5-7.6,6.9-15.2,10.4-22.9c0.4-0.8,0.8-1.2,1.8-1.1
			c1.7,0.1,3.4,0,5.4,0c-0.2,0.6-0.4,1-0.6,1.5c-3.8,8.5-7.7,17.1-11.5,25.6c-0.4,0.9-0.4,1.6-0.1,2.5c4,10.8,7.9,21.7,11.8,32.5
			C307.2,439,307.3,439.4,307.4,439.9z"/>
		<path class="st2" d="M529.2,419.2c2.3-0.3,4.4-0.5,6.6-0.8c-0.2,4.2,0.5,8.4-0.7,12.4c-2,6.4-7.8,10-13.7,9.7
			c-6.8-0.3-12.2-5-13.3-11.4c-0.2-1-0.3-2.1-0.3-3.1c0-11.9,0-23.8,0-35.6c0-7.1,4.3-12.5,11.1-14.1c7.8-1.8,16,3.9,16.6,11.9
			c0.4,5.2,0.2,10.4,0.3,15.6c0,1.8,0,3.7,0,5.6c-7.1,0-14.1,0-21.3,0c0,0.5-0.1,0.9-0.1,1.4c0,5.2,0,10.5,0,15.7
			c0,4.2,3.2,7.5,7.3,7.6c4.2,0,7.4-3.3,7.4-7.6C529.3,424,529.2,421.6,529.2,419.2z M521.9,402.7c2.1,0,4.2,0,6.2,0
			c0.8,0,1.1-0.2,1.1-1.1c0-4,0-8,0-12c-0.1-4-3.4-7.2-7.3-7.2c-3.9,0-7.3,3.2-7.3,7.2c-0.1,4,0,8,0,12c0,0.9,0.4,1.1,1.1,1
			C517.7,402.7,519.8,402.7,521.9,402.7z"/>
		<path class="st2" d="M459.3,408.3c0,6,0.1,12,0,18c-0.1,4.9-2,9-6.1,11.8c-8.3,5.7-19.7,1-21.6-8.9c-0.2-0.9-0.3-1.9-0.3-2.9
			c0-12.1,0-24.1,0-36.2c0-7,4.5-12.5,11.2-13.9c8-1.7,15.7,3.9,16.6,11.9c0.1,1.2,0.2,2.5,0.2,3.7
			C459.3,397.3,459.3,402.8,459.3,408.3z M438,408.2c0,6.2,0,12.3,0,18.5c0,4.1,3.4,7.3,7.4,7.3s7.3-3.2,7.3-7.3
			c0-12.3,0-24.6,0-36.9c0-2.2-0.9-4.1-2.6-5.5c-2.3-1.9-5-2.4-7.7-1.1c-2.8,1.3-4.3,3.6-4.3,6.6C437.9,396,438,402.1,438,408.2z"/>
		<path class="st1" d="M342.5,434.1c0,2.2,0,4.3,0,6.4c-4.8,0.2-9.1-4-9.2-8.8c-0.1-4.2,0-8.3,0-12.5c0-21.5,0-43,0-64.5
			c0-0.5,0-1,0-1.6c2.2-0.3,4.4-0.5,6.7-0.8c0,0.6,0,1.1,0,1.6c0,25.5,0,51,0,76.5C340.1,432.7,340.4,433.2,342.5,434.1z"/>
		<path class="st1" d="M352.3,353.1c2.2-0.3,4.4-0.5,6.7-0.8c0,0.7,0,1.2,0,1.7c0,25.5,0,51,0,76.5c0,2.2,0.4,2.7,2.5,3.6
			c0,2.1,0,4.3,0,6.4c-4,0.2-8.1-3-8.9-7.1c-0.2-0.8-0.2-1.6-0.2-2.4c0-25.5,0-51.1,0-76.6C352.3,354,352.3,353.6,352.3,353.1z"/>
		<path class="st1" d="M321.7,439.7c-2.2,0-4.3,0-6.5,0c0-21,0-42,0-63.1c2.2,0,4.3,0,6.5,0C321.7,397.6,321.7,418.6,321.7,439.7z"
			/>
		<path d="M315.2,360.1c2.2,0,4.3,0,6.5,0c0,3,0,5.9,0,8.9c-2.1,0-4.3,0-6.5,0C315.2,366.1,315.2,363.1,315.2,360.1z"/>
		<path class="st0" d="M490.6,408.2c0,6,0,12,0,18c0,4.4-3.1,7.7-7.3,7.7c-4.1,0-7.4-3.3-7.4-7.7c0-12.1,0-24.2,0-36.2
			c0-3.9,2.9-7.1,6.7-7.4c3.6-0.4,7,2.1,7.8,5.8c0.1,0.6,0.1,1.3,0.1,1.9C490.6,396.3,490.6,402.2,490.6,408.2z"/>
		<path class="st0" d="M521.9,402.7c-2.1,0-4.2,0-6.2,0c-0.8,0-1.2-0.1-1.1-1c0-4,0-8,0-12c0.1-4,3.4-7.2,7.3-7.2
			c3.9,0,7.3,3.2,7.3,7.2c0.1,4,0,8,0,12c0,0.9-0.3,1.1-1.1,1.1C526,402.7,524,402.7,521.9,402.7z"/>
		<path class="st0" d="M438,408.2c0-6.1-0.1-12.2,0-18.3c0-3.1,1.5-5.4,4.3-6.6c2.8-1.3,5.4-0.8,7.7,1.1c1.7,1.4,2.6,3.3,2.6,5.5
			c0,12.3,0,24.6,0,36.9c0,4-3.3,7.2-7.3,7.3c-4,0-7.3-3.2-7.4-7.3C437.9,420.5,438,414.3,438,408.2z"/>
	</g>
</g>
</svg>
