<?xml version="1.0" encoding="utf-8"?>
<!-- Generator: Adobe Illustrator 19.0.0, SVG Export Plug-In . SVG Version: 6.00 Build 0)  -->
<svg version="1.1" id="Calque_1" xmlns="http://www.w3.org/2000/svg" xmlns:xlink="http://www.w3.org/1999/xlink" x="0px" y="0px"
	 viewBox="0 0 612 792" style="enable-background:new 0 0 612 792;" xml:space="preserve">
<style type="text/css">
	.st0{fill:#323232;}
	.st1{fill:none;}
	.st2{fill:#AD274E;}
</style>
<g>
	<path class="st0" d="M326,770c-11.3,0-22.7,0-34,0c-1.7-0.5-3.4-1.1-5.1-1.3c-18.4-2.3-37-3.4-55.1-7
		c-31.4-6.1-61.4-16.5-90.3-30.5C87.6,705.1,42.3,668.3,5.8,621c-26.7-34.6-46.5-72.9-59.5-114.7c-9.3-29.9-14.8-60.4-16.1-91.6
		c-0.1-2.9-0.7-5.8-1.1-8.7c0-6,0-12,0-18c0.4-1.7,0.9-3.4,1.1-5.1c1.5-15.5,1.5-31.3,4.6-46.5c4.3-21.4,10-42.5,16.7-63.3
		c7.6-23.9,19-46.3,32.2-67.7c21.7-35.3,48.4-66.2,80.3-92.7c19.6-16.3,40.6-30.6,63-42.6c31.4-16.8,64.4-29.2,99.3-36.7
		c20.6-4.4,41.4-7.4,62.4-8.3c2.8-0.1,5.7-0.8,8.5-1.2c7.7,0,15.3,0,23,0c1.1,0.4,2.1,1,3.2,1.1c20.1,0.2,39.9,2.9,59.6,6.6
		c22.7,4.2,44.6,10.7,66.1,19.1c35.1,13.7,67.5,32.3,97.2,55.6c25.1,19.8,47.4,42.3,66.8,67.7c22.7,29.7,40.9,62,53.1,97.4
		c6,17.3,10.1,35.2,14.9,52.9c1.6,5.8,2.7,11.8,4.1,17.7c0,0.3,0,0.7,0,1c-1.9,0.6-3.8,1.8-5.7,1.8c-31,0.1-62,0.1-93,0.1
		c-9.3,0-9.2,0-11.2-8.9c-8.7-39.2-26.4-74.2-51.4-105.4C496.6,196.8,463,171,423.4,153c-34.8-15.9-71.5-23.8-109.7-24.6
		c-11.6-0.3-23.2,1.1-34.8,1.9c-18.1,1.3-35.7,5.2-52.8,10.7c-56.2,18-102.4,50.2-137.9,97.5C53.5,284.8,36,337.2,35.4,394.9
		c-0.2,16.5,2.3,33,4.6,49.4c3.6,26.2,12.7,50.7,24.8,74c21.8,42,52.6,76,92.2,102.1c42.5,28,89.3,42.6,139.9,45.1
		c14.8,0.7,29.8-0.9,44.7-2.1c23.9-1.9,46.8-8.2,69-17c50.4-19.8,91.2-51.8,122.8-95.7c20.9-29,35.1-61.1,42.8-96
		c0.9-4,2.7-4.5,6.1-4.5c32.5,0.1,65,0,97.5,0.1c1.8,0,3.5,0.5,5.3,0.8c0,0.3,0,0.7,0,1c-1.1,4.9-2.1,9.8-3.2,14.8
		c-6.2,28.7-14.7,56.6-27.1,83.4c-22.6,48.8-54.2,90.7-94.8,126c-29,25.2-61.1,45.5-96.3,60.9c-42.5,18.6-86.8,29.4-133.2,31.7
		C329,768.8,327.5,769.5,326,770z"/>
	<path class="st1" d="M685,451c-1.8-0.3-3.5-0.8-5.3-0.8c-32.5-0.1-65,0-97.5-0.1c-3.4,0-5.2,0.5-6.1,4.5c-7.7,34.9-21.9,67-42.8,96
		c-31.6,43.9-72.4,75.9-122.8,95.7c-22.3,8.8-45.1,15.1-69,17c-14.9,1.2-29.9,2.8-44.7,2.1c-50.5-2.5-97.4-17.1-139.9-45.1
		c-39.5-26.1-70.4-60.1-92.2-102.1c-12.1-23.3-21.2-47.9-24.8-74c-2.3-16.4-4.8-33-4.6-49.4c0.7-57.7,18.2-110.1,52.8-156.4
		c35.4-47.3,81.7-79.5,137.9-97.5c17.2-5.5,34.8-9.4,52.8-10.7c11.6-0.8,23.2-2.1,34.8-1.9c38.2,0.8,74.9,8.7,109.7,24.6
		c39.5,18,73.2,43.8,100.3,77.7c25,31.2,42.7,66.1,51.4,105.4c2,8.8,1.9,8.9,11.2,8.9c31,0,62,0,93-0.1c1.9,0,3.8-1.2,5.7-1.8
		C685,379,685,415,685,451z M125.3,466.2c24.1,58.1,64.5,98.8,124.4,116.7c75.6,22.7,143.4,5.7,198.6-50.6
		c49.7-50.8,64.1-112.9,49.5-182.5c-92.9,0-185.2,0-278,0c0.8-1.7,1.1-3,1.9-3.9c5.8-7.3,10.9-15.1,17.5-21.6
		c22.6-22.2,50.4-30.2,81.3-27c22.5,2.3,41.7,12.5,58.2,27.8c1.8,1.7,4.9,2.8,7.4,2.8c33,0.2,66,0.1,99,0.1c1.6,0,3.2-0.1,4.9-0.2
		c-27.4-79.2-120.3-146.1-227.3-120.4C151.7,234,93.2,344.7,118.9,444.3c92.2,0,184.5,0,277.3,0c-0.5,1.5-0.7,2.3-1.1,3
		c-18.2,32.1-55.8,53.4-95,50c-24.8-2.2-45.5-12-63.4-28.9c-1.5-1.4-4.1-2.3-6.1-2.3c-33.5-0.1-67-0.1-100.5-0.1
		C128.9,466,127.6,466.1,125.3,466.2z"/>
	<path class="st1" d="M-71,406c0.4,2.9,1,5.8,1.1,8.7c1.3,31.3,6.8,61.7,16.1,91.6c13,41.8,32.9,80.1,59.5,114.7
		c36.5,47.4,81.8,84.1,135.7,110.3c28.8,14,58.9,24.4,90.3,30.5c18.1,3.5,36.7,4.7,55.1,7c1.7,0.2,3.4,0.9,5.1,1.3
		c-120.9,0-241.8,0-363,0C-71,648.7-71,527.3-71,406z"/>
	<path class="st1" d="M297,24c-2.8,0.4-5.6,1.1-8.5,1.2c-21.1,0.9-41.8,3.8-62.4,8.3c-34.8,7.5-67.9,19.9-99.3,36.7
		c-22.4,12-43.4,26.3-63,42.6c-31.9,26.5-58.6,57.4-80.3,92.7c-13.2,21.4-24.6,43.8-32.2,67.7c-6.6,20.8-12.3,41.9-16.7,63.3
		c-3.1,15.2-3.1,31-4.6,46.5c-0.2,1.7-0.7,3.4-1.1,5.1c0-121.3,0-242.5,0-364C51.7,24,174.3,24,297,24z"/>
	<path class="st1" d="M326,770c1.5-0.5,3-1.2,4.5-1.3c46.4-2.2,90.7-13,133.2-31.7c35.2-15.4,67.3-35.7,96.3-60.9
		c40.6-35.3,72.2-77.2,94.8-126c12.4-26.7,20.9-54.6,27.1-83.4c1.1-4.9,2.1-9.8,3.2-14.8c0,105.9,0,211.8,0,318
		C565.3,770,445.7,770,326,770z"/>
	<path class="st1" d="M685,342c-1.3-5.9-2.5-11.9-4.1-17.7c-4.8-17.7-9-35.6-14.9-52.9c-12.2-35.4-30.5-67.7-53.1-97.4
		c-19.3-25.4-41.6-47.9-66.8-67.7C516.4,83,484,64.5,448.9,50.7c-21.4-8.4-43.4-14.8-66.1-19.1c-19.7-3.7-39.5-6.4-59.6-6.6
		c-1.1,0-2.1-0.7-3.2-1.1c121.7,0,243.3,0,365,0C685,130,685,236,685,342z"/>
	<path class="st2" d="M125.3,466.2c2.3-0.1,3.6-0.2,4.9-0.2c33.5,0,67,0,100.5,0.1c2.1,0,4.6,0.9,6.1,2.3
		c17.9,16.9,38.6,26.7,63.4,28.9c39.2,3.5,76.8-17.8,95-50c0.4-0.7,0.5-1.5,1.1-3c-92.8,0-185.2,0-277.3,0
		C93.2,344.7,151.7,234,262.6,207.4c107-25.7,199.9,41.2,227.3,120.4c-1.7,0.1-3.3,0.2-4.9,0.2c-33,0-66,0.1-99-0.1
		c-2.5,0-5.6-1.1-7.4-2.8c-16.6-15.3-35.8-25.5-58.2-27.8c-30.9-3.2-58.7,4.8-81.3,27c-6.6,6.5-11.8,14.3-17.5,21.6
		c-0.8,1-1.1,2.3-1.9,3.9c92.8,0,185.1,0,278,0c14.6,69.5,0.2,131.7-49.5,182.5c-55.2,56.4-122.9,73.3-198.6,50.6
		C189.7,565,149.4,524.3,125.3,466.2z"/>
</g>
</svg>
